Coordinates
version=1
nRows=20
nColumns=38
inDegrees=no

Units are S.I. units (second, meters, Newtons, ...)
If the header above contains a line with 'inDegrees', this indicates whether rotational values are in degrees (yes) or radians (no).

endheader
time	pelvis_tilt	pelvis_list	pelvis_rotation	pelvis_tx	pelvis_ty	pelvis_tz	hip_flexion_r	hip_adduction_r	hip_rotation_r	knee_angle_r	ankle_angle_r	subtalar_angle_r	mtp_angle_r	hip_flexion_l	hip_adduction_l	hip_rotation_l	knee_angle_l	ankle_angle_l	subtalar_angle_l	mtp_angle_l	lumbar_extension	lumbar_bending	lumbar_rotation	arm_flex_r	arm_add_r	arm_rot_r	elbow_flex_r	pro_sup_r	wrist_flex_r	wrist_dev_r	arm_flex_l	arm_add_l	arm_rot_l	elbow_flex_l	pro_sup_l	wrist_flex_l	wrist_dev_l
0	-3.09866	1.26689	-1.47737	0.649404	-0.171012	0.951986	-0.426664	0.00148459	-0.0693397	0.0808345	-0.289693	0	0	-0.386638	-0.046207	-0.0672391	0.13944	-0.238593	0	0	-0.345118	0.103275	-0.244017	0.0889014	-0.353333	0.520337	0.862516	1.5708	0	0	-0.0971213	0.00435477	-0.382577	0.817195	1.5708	0	0
0.01	-3.08062	1.23908	-1.49555	0.650807	-0.172884	0.952749	-0.44596	-0.00813936	-0.0830792	0.10592	-0.280388	0	0	-0.427847	-0.0419087	-0.0493559	0.106211	-0.253893	0	0	-0.390764	0.0680005	-0.221776	0.0935939	-0.346096	0.528013	0.84885	1.5708	0	0	-0.113006	-0.251793	0.122559	0.915388	1.5708	0	0
0.02	-3.07943	1.23872	-1.49654	0.650846	-0.172912	0.952788	-0.445005	-0.00823983	-0.0855027	0.109096	-0.279073	0	0	-0.428719	-0.0414937	-0.0481264	0.104777	-0.255682	0	0	-0.39126	0.0676285	-0.221556	0.0933236	-0.346364	0.52647	0.850476	1.5708	0	0	-0.112621	-0.253943	0.123929	0.917185	1.5708	0	0
0.03	-3.07826	1.23836	-1.49739	0.650862	-0.172943	0.952804	-0.443979	-0.00822978	-0.0884657	0.112568	-0.277895	0	0	-0.42935	-0.0411615	-0.0474083	0.103947	-0.256484	0	0	-0.391697	0.0672896	-0.221521	0.0932453	-0.346891	0.525615	0.85254	1.5708	0	0	-0.112422	-0.255835	0.123756	0.920229	1.5708	0	0
0.04	-3.07674	1.23781	-1.49846	0.650865	-0.173003	0.952824	-0.442833	-0.00823941	-0.0920696	0.11676	-0.276298	0	0	-0.430068	-0.0407546	-0.0463722	0.10332	-0.257104	0	0	-0.392425	0.0668291	-0.221668	0.0932619	-0.347478	0.524645	0.855205	1.5708	0	0	-0.112456	-0.258386	0.12341	0.92467	1.5708	0	0
0.05	-3.07515	1.23732	-1.49959	0.650867	-0.173081	0.952871	-0.441466	-0.00827666	-0.0956842	0.12129	-0.27434	0	0	-0.430589	-0.0403049	-0.0452283	0.102997	-0.257653	0	0	-0.393191	0.0665084	-0.221888	0.0935941	-0.348006	0.523272	0.858169	1.5708	0	0	-0.112219	-0.261265	0.122665	0.929545	1.5708	0	0
0.06	-3.07355	1.23703	-1.50083	0.650883	-0.173156	0.952925	-0.439923	-0.00834272	-0.0988298	0.125682	-0.272175	0	0	-0.430711	-0.039808	-0.0442398	0.103024	-0.258052	0	0	-0.393817	0.0661499	-0.222038	0.0939667	-0.348647	0.52155	0.861684	1.5708	0	0	-0.111725	-0.264416	0.121387	0.934801	1.5708	0	0
0.07	-3.07214	1.23704	-1.50193	0.650927	-0.173227	0.952976	-0.438282	-0.00838405	-0.10132	0.129544	-0.269968	0	0	-0.430345	-0.0393793	-0.0433415	0.103322	-0.258368	0	0	-0.394234	0.0657244	-0.222003	0.094269	-0.349417	0.519734	0.866025	1.5708	0	0	-0.110707	-0.267617	0.1193	0.939916	1.5708	0	0
0.08	-3.0712	1.23715	-1.50259	0.650988	-0.173309	0.953025	-0.436729	-0.0083465	-0.103337	0.132825	-0.267927	0	0	-0.429714	-0.0391372	-0.0423966	0.103862	-0.258634	0	0	-0.394686	0.0654359	-0.221761	0.0945735	-0.35028	0.517541	0.871347	1.5708	0	0	-0.109309	-0.270929	0.116146	0.945246	1.5708	0	0
0.09	-3.0705	1.2373	-1.50305	0.651074	-0.1734	0.953087	-0.435278	-0.00826271	-0.104935	0.135658	-0.266161	0	0	-0.428835	-0.0390335	-0.0416094	0.104815	-0.25877	0	0	-0.395223	0.0651894	-0.221373	0.0947671	-0.351294	0.514481	0.878107	1.5708	0	0	-0.107923	-0.273821	0.110507	0.951319	1.5708	0	0
0.1	-3.06956	1.23749	-1.5038	0.651198	-0.173498	0.953164	-0.43392	-0.0082495	-0.106031	0.138117	-0.264595	0	0	-0.427715	-0.0388484	-0.040907	0.106154	-0.258804	0	0	-0.395734	0.0647909	-0.221036	0.0951471	-0.352289	0.510757	0.886282	1.5708	0	0	-0.107	-0.277201	0.103883	0.958928	1.5708	0	0
0.11	-3.07037	1.23893	-1.50322	0.651228	-0.173306	0.953089	-0.431747	-0.00806701	-0.10721	0.139915	-0.263163	0	0	-0.425707	-0.0389514	-0.0414947	0.10737	-0.258557	0	0	-0.393487	0.064716	-0.221508	0.0951643	-0.352353	0.505585	0.894707	1.5708	0	0	-0.107838	-0.280283	0.0952254	0.968105	1.5708	0	0
0.12	-3.0709	1.24096	-1.50272	0.651272	-0.173118	0.952983	-0.429099	-0.00793842	-0.108146	0.141409	-0.261886	0	0	-0.42282	-0.0390301	-0.0420499	0.109005	-0.25812	0	0	-0.390532	0.0646902	-0.222286	0.0954085	-0.352177	0.500229	0.904	1.5708	0	0	-0.108565	-0.283605	0.0852204	0.978501	1.5708	0	0
0.13	-3.0715	1.24322	-1.50213	0.651359	-0.172963	0.952868	-0.426208	-0.00771022	-0.108807	0.142671	-0.260788	0	0	-0.419486	-0.0391403	-0.0424075	0.110953	-0.257474	0	0	-0.387528	0.0645255	-0.222917	0.0957282	-0.351734	0.494374	0.914288	1.5708	0	0	-0.109091	-0.287437	0.0744488	0.990207	1.5708	0	0
0.14	-3.07231	1.24583	-1.50136	0.651479	-0.172799	0.952758	-0.422964	-0.00740052	-0.108934	0.143859	-0.259828	0	0	-0.415739	-0.0392988	-0.0423425	0.113053	-0.256686	0	0	-0.384183	0.0644704	-0.223447	0.0957707	-0.351466	0.488178	0.926052	1.5708	0	0	-0.109801	-0.291764	0.0638239	1.00345	1.5708	0	0
0.15	-3.07298	1.2491	-1.50072	0.651611	-0.172594	0.952664	-0.419146	-0.00720918	-0.108678	0.144902	-0.258969	0	0	-0.41112	-0.0393817	-0.0421231	0.115429	-0.255912	0	0	-0.38007	0.0644988	-0.224042	0.0953516	-0.351485	0.481733	0.939358	1.5708	0	0	-0.110571	-0.296395	0.053512	1.0177	1.5708	0	0
0.16	-3.07314	1.25298	-1.50054	0.651755	-0.172354	0.95255	-0.41479	-0.00723129	-0.108369	0.14578	-0.258156	0	0	-0.405622	-0.03933	-0.042175	0.118151	-0.254875	0	0	-0.375294	0.0644565	-0.224725	0.0944279	-0.351383	0.474291	0.954092	1.5708	0	0	-0.111216	-0.301412	0.0428592	1.03267	1.5708	0	0
0.17	-3.0731	1.25715	-1.50054	0.651905	-0.172108	0.952421	-0.410106	-0.00734503	-0.108164	0.146606	-0.257358	0	0	-0.399522	-0.0392542	-0.042386	0.121426	-0.25359	0	0	-0.370211	0.0644071	-0.225369	0.0932998	-0.351081	0.465876	0.970401	1.5708	0	0	-0.111698	-0.307026	0.032416	1.04805	1.5708	0	0
0.18	-3.07564	1.26138	-1.49842	0.651968	-0.171849	0.952267	-0.405145	-0.00699427	-0.107897	0.147638	-0.256815	0	0	-0.393384	-0.0397426	-0.0432478	0.124876	-0.252226	0	0	-0.365017	0.0652796	-0.225556	0.0923116	-0.351391	0.457101	0.98869	1.5708	0	0	-0.112052	-0.3126	0.0223772	1.06337	1.5708	0	0
0.19	-3.0783	1.26598	-1.49626	0.652007	-0.171508	0.952083	-0.399926	-0.0067315	-0.107577	0.148594	-0.256329	0	0	-0.386774	-0.0402736	-0.0448141	0.128827	-0.250641	0	0	-0.359271	0.0663744	-0.225611	0.0910821	-0.351827	0.447388	1.00842	1.5708	0	0	-0.112247	-0.318634	0.0132701	1.07887	1.5708	0	0
